<svg width="0" height="0" class="hidden" xmlns="http://www.w3.org/2000/svg" shape-rendering="geometricPrecision" image-rendering="optimizeQuality">
  <symbol fill-rule="evenodd" viewBox="0 0 540 537" id="python">
    <path fill="#3778ae" d="M122 337s-2-76 76-76h129s73 1 73-71V72S411 0 268 0C131 0 140 59 140 59v62h131v19H88S0 130 0 268s77 133 77 133h45v-64zm74-248c-31 0-31-48 0-48s31 48 0 48z"></path>
    <path fill="#ffd94a" d="M213 277s-73-2-73 70v119s-11 71 132 71c137 0 129-59 129-59l-1-62H270v-18h182s88 10 88-129c0-138-76-133-76-133h-46v64s2 77-76 77H213zm131 219c-31 0-31-47 0-47s31 47 0 47z"></path>
  </symbol>
  <symbol fill-rule="evenodd" viewBox="0 0 540 437" id="sql-server">
    <path d="M341 298h0zm1 0v-7h3v-1h-7v1h3v7h1zm4-8v8h1v-6h0v-1 1l3 6h1l3-6v-1 1 6h1v-8h-1l-3 6-1 1h0v-1l-3-6h-1zM27 369h0zm17-26v-11c-10-5-34-6-42 10-6 14 0 24 19 35 11 7 16 12 16 18 0 13-15 17-31 9-3-1-5-3-6-3v12s5 2 12 4c18 3 34-5 35-19 2-12-3-19-20-29-12-7-17-12-16-18 2-17 22-14 33-8zm-10-22v-30h-4l-11 24h-1L8 291H3v30h4v-20-1c0-2 0-4-1-5h1l11 26h1l12-26h0l-1 26h4zm8-20v18h3v-18zm1-7c5 0 2-7-1-4-2 1-1 4 1 4zm23 6c-5-3-16-1-16 10s10 13 16 10v-4c-9 7-16-5-10-12 3-3 7-3 10-1v-3zm17-1c-3-1-7 0-8 5h0v-5h-3v22h3v-11h0c0-8 6-9 8-7v-4zm12 22h0zm0-22c-14 0-14 22 0 22s15-22 0-22zm-5 5c3-4 12-4 12 6 0 11-14 11-14 0 0-3 1-5 2-6zm32-4c-10-5-19 6-7 11 10 5 1 11-5 5v4c5 3 11-1 11-1 3-3 3-8-4-10-9-4-2-10 5-6v-3zm15-1c-14 0-14 22 0 22 12 0 13-14 8-19l-8-3zm7 11h0zm-14 0c0-10 10-10 12-6 1 1 2 3 2 6 0 12-14 11-14 0zm-33 19h0zm39 47c2-29-13-47-39-47-17 0-30 8-37 23-6 13-5 30 0 43 6 13 15 20 32 22 5 1 14 13 20 20h14l-19-21c0-2 15-1 24-20 4-8 5-11 5-20zm-26 29h0zm-14-67c18 0 28 11 30 31 1 17-5 30-16 36-7 3-18 4-24 1-7-2-14-10-17-18-3-9-3-25 1-33 6-12 14-17 26-17zm54-8v85h45v-10h-35v-37-38zm343 25v60h10v-19c0-18 1-20 3-25 3-6 9-10 15-8l4 1v-11h-5c-10 0-13 6-17 12v-10h-10zm-336-56c0-3-1-8 3-8 1 0 2 1 3 1v-3c-3-1-10 0-10 7v3h-3v3h3v19h4v-19h5v-3h-5zm10 16h0zm0-21v5h-3v3h3v13c0 8 7 7 9 6v-3c-1 0-5 2-5-4v-12h5v-3h-5v-6l-4 1zm78 75h0zm-24-27c-7 14-1 24 18 35 11 7 16 12 16 18 0 13-15 17-30 9-4-1-6-3-6-3-1 4-1 12-1 12s5 2 12 4c18 3 34-5 35-19 2-12-3-19-20-29-12-7-17-12-16-18 2-17 22-14 33-8v-11c-10-5-34-6-41 10zm80 11c-31 0-36 42-21 56 12 9 22 10 37 5l5-2v-10c-12 6-24 10-32 2-5-4-7-10-8-16h43v-8c0-17-10-27-24-27zm14 27h-32c3-17 17-22 26-15 5 4 6 15 6 15zm48-26h0zm-27 1v60h11v-19c0-18 0-20 2-25 4-6 10-10 15-8l4 1v-10h-5c-9 0-12 5-16 11v-10h-11zm121-2c-30 0-35 42-20 56 12 9 22 10 36 5l5-2v-10c-11 6-23 10-32 2-4-5-6-10-7-16h43v-8c0-17-10-27-25-27zm-17 26c3-16 16-21 26-14 5 4 6 14 6 14h-32zm98-24c1 1 1 2 1 4 0 1 0 3-1 4s-3 1-4 1c-2 0-3 0-4-1s-1-3-1-4c0-2 0-3 1-4s2-1 4-1c1 0 3 0 4 1zm-10 4c0 2 0 3 2 4 1 1 2 2 4 2s3-1 4-2 2-2 2-4-1-3-2-4h0c-1-2-2-2-4-2s-3 0-4 2c-2 1-2 2-2 4zm7 0h0zm1-1s1 0 1-1-1-1-1-1c-1-1-1-1-2-1h-3v8h2v-4h0c1 0 1 1 2 2v2h2l-1-2c-1-1-1-2-1-2s1 0 1-1zm-1-1c0 1 0 2-1 2h-1v-3h1 1v1zm-351-59h1 1s1 0 1 1-1 1-2 1h-1v-2h0zm4 1c0-1-1-1-1-2h-2-2v7h1v-3h0 1s0 1 1 2l1 1h1l-1-2-1-1s1 0 1-1l1-1zm-7-2c1-1 3-2 4-2 2 0 3 1 4 2s2 2 2 4c0 1-1 2-2 3-1 2-2 2-4 2-1 0-3 0-4-2-1-1-1-2-1-3 0-2 0-3 1-4zm4-2c-2 0-3 0-4 1-1 2-2 3-2 5 0 1 1 3 2 4s2 2 4 2h0c2 0 3-1 4-2 2-1 2-3 2-4 0-2 0-4-2-5-1-1-2-1-4-1z"></path>
    <path d="M324 308h0zm-11 29s0-1 1-2c3-7 10-27 10-27h0c-1 0-2 0-3 1-20 9-31 12-55 17l-7 2 36 6 18 3zm-52-12c19-6 43-13 50-15 5-2 12-4 12-4l-1-1c-7 0-18-2-25-4s-11-3-17-5c-3-1-4-2-5-2l-2 4c-6 9-12 17-19 25-1 2-2 3-2 3l2 1s3-1 7-2zm-11-2l18-28h-3c-7 2-18 6-38 11-7 2-13 4-14 4 0 0 5 3 8 5 3 1 7 3 11 4l16 6 2-2zm-39-15l52-18c-1-1-2-1-3-1-9-2-21-6-28-10h-1l-22 28 2 1zm-2-6l17-25c-3-2-7-4-10-6l-27 6c-1 0-1 1 0 3 1 5 4 10 7 15 3 4 7 7 11 10l2-3zm-20-28l22-7c-5-4-9-8-12-12v-1c-6 6-10 13-10 19-1 1-1 1 0 1zm133 24c-9-1-20-2-32-3 11 4 22 7 34 9h1l2-6h-5zm5-143c14-5 26-10 40-14l-1-2-39 13c-5 4-5 4-4 4 0 0 2-1 4-1zm-13 3v-2l-7 3-27 11c-3 2-6 4-8 6l-3 3s1-1 4-2c2-1 5-3 7-4 7-3 17-7 28-11l6-3v-1z" fill="#a3acb7"></path>
    <path fill="#a91d22" d="M460 111c2 2 4 5 6 8v1l-4 1c-4 1-8 1-13 2 6-1 12-1 17-2h4l-8-8c-1-1-1-2-2-2z"></path>
    <path d="M371 355c8 20 15 40 23 60h10l12-30 12-30h-10l-10 25-8 24-9-24-9-25h-11z"></path>
    <path fill="#a3acb7" d="M307 240c9-5 18-10 25-15l9-6c0 11-1 24-3 36 0 2-1 3-1 3-7-2-15-5-23-10-4-2-11-6-11-6l4-2zm-5 6c9 6 24 11 35 14-7 4-26 12-47 20l-8 2s1-1 2-3c6-11 12-23 15-32v-2s1 0 3 1zm35 17zm-51 24c20-9 42-19 49-23 1-1 1-1 2-1 0 1-3 10-5 17-1 6-3 10-5 18h2c1 0 3-5 6-11 10-21 17-40 21-56 3-10 5-23 6-39v-24c0-8-1-15-2-21v-2c-3 1-5 2-7 3 1 3 2 25 2 25-1 0-8-5-13-8-4-3-13-8-14-9-2 0-4 1-5 1 0 1 1 1 3 2 9 6 22 13 27 15 2 1 2 1-2 3-8 6-18 12-31 17l-4 2s1-1 1-3c3-11 5-22 5-31v-4c-2 0-4 1-6 2v13c-1 6-2 12-5 19 0 2 0 3-1 3 0 1-6-6-8-8-3-4-6-8-8-12-1-2-2-5-3-6-1 1-3 2-4 2v2c2 4 5 9 8 13s7 8 10 11l2 2c1 0 1 0-7 3-10 4-24 9-36 13 0 0 0-1 1-2 6-9 14-25 18-36 1-2 2-4 2-5-1 0-1 0-2 1-16 7-32 14-46 22-9 5-13 7-16 9l-4 2h-1c-3 3-9 8-12 12-4 5-7 10-8 15-3 7-2 14 3 21 1-1 2-2 3-4 4-4 8-7 15-11 4-2 11-6 12-7v2c0 2-1 4-1 5 0 7 1 12 4 18l2 4-23 6c2 1 3 3 5 4l13-4c3 0 5-1 5-1l-8 11c2 1 3 1 5 2 0 0 0-1 1-1l7-9c8 8 14 13 23 19 2 0 3 1 3 1l-2 1c7 1 17 3 27 5-1-1-1-1-2-1-3-2-8-4-8-4l6-3zm-23-71s-2 5-5 9c-4 9-9 17-15 27l-2 4c-1 0-1 0-1-1-2-3-3-7-4-11-1-3 0-9 0-13 1-3 1-3 2-4 6-3 25-11 25-11zm13 65c-2 3-3 5-4 5 0 0-1-1-3-2-9-5-18-13-23-20l-1-1c18-4 28-8 44-14l3-2s0 1-1 2c-4 10-9 20-15 32z"></path>
    <path fill="#a91d22" d="M266 173c3-3 5-6 8-9 2-2 2-3 4-4 7-5 22-15 23-15 0 0-5 6-9 9-9 9-17 16-28 23l-2 1-1 1v-1c1 0 2-1 5-5zm14-3c10-8 19-16 26-25 1-1 1-2 1-2h1l1 2c2 3 4 7 5 11v2 1l-6 3c-11 4-21 8-28 11-2 1-5 3-7 4-3 1-4 2-4 2l3-3c2-2 5-4 8-6zm149-81zM237 195c14-8 30-16 48-23 0 0 1-1 2-1s3-1 4-2h0c7-2 13-5 20-8 2 0 3-1 5-1 2-1 4-2 6-2 0-1 0-1 1-1s3-1 5-1c8-3 16-6 25-8v-1c2 0 4-1 7-2h0c30-9 64-17 89-22-15 2-33 5-50 10h-3l4-4c14-13 20-21 27-36l2-4s1 0 3 1c10 6 20 13 28 21-1-2-2-3-3-4-9-11-19-20-32-27-18-10-41-18-70-23-5-1-17-4-27-5-2 0-4-1-7-1-10-2-18-3-25-4-3-1-5-1-8-2h-4c-2-1-3-1-5-1-1 0-3-1-5-1-4-1-9-2-13-2-1 0-1-1-2-1-3 0-7-1-10-3h-1c-3-1-7-3-8-6v2 2c1 1 2 3 4 5 0 0 20 20 23 22 11 13 16 26 16 43 0 11-2 21-7 33-9 20-29 43-60 68h1l4-2c3-2 7-4 16-9zm45-144zm1 2c0-1-1-2-1-2h3c7 2 21 5 30 6 1 0 3 1 3 1s-1 0-2 1c-1 0-7 4-9 5-5 4-10 7-13 10-1 2-2 3-2 3s-1-1-1-2c-1-6-5-15-8-22zm12 64c1-7 1-17-1-27v-2s6 1 10 2c5 1 16 5 16 5l-3 3c-6 5-11 10-18 16l-4 4v-1zm27-29c-5-2-12-4-19-6-4-1-7-2-7-2l8-8 17-14c1 1 1 2 2 5 2 7 2 14 2 21v4h0-3zm-34 55c1-3 2-7 3-10 1-1 1-2 1-2 1 0 2 1 3 1 3 2 5 4 7 6 1 0-1 1-2 2l-15 11c-4 3-4 3-3 2 3-4 4-7 6-10zm19-12c-3-3-6-5-9-7-1 0-2-1-2-1l14-12c4-4 13-11 13-11s-1 6-2 9c-2 5-5 13-8 18-1 1-2 3-3 4l-1 2-2-2zm27-46c-2 1-4 3-4 3v-3c0-9-2-17-5-25l-1-1c1 0 19 3 27 5 7 1 16 3 16 3 1 0 0 1-3 2-12 5-21 10-30 16zm11 27c-8 4-15 8-23 13l-4 2 1-2c4-7 7-16 9-25 0-1 1-1 1-1s6 3 11 5c4 2 10 5 10 6 0 0-2 1-5 2zm13-9s-1 0-3-1c-5-3-11-6-17-9-2 0-4-1-4-1s14-10 22-15c6-3 16-9 16-9s0 4-1 6c-1 7-6 17-11 26-1 2-2 3-2 3zm-41 52c0-5-1-10-3-15-1-2-2-3-1-3 0-1 14-8 22-13 5-3 14-7 14-7s-6 9-9 14l-18 22s-1 0-1 1c-2 2-3 4-3 4-1 0-1-1-1-2v-1zm10-3c12-11 22-23 30-35l2-2 2 1c5 4 11 8 16 12 2 2 7 6 8 7l1 1-4 1c-5 1-10 3-15 4-14 4-26 9-40 14-2 0-4 1-4 1-1 0-1 0 4-4h0zm44-39c-2-1-3-3-4-3l-1-1s8-3 14-6c10-4 24-9 34-12 6-2 12-3 12-3s-3 5-5 7l-16 21c-4 5-10 12-12 14-1 3-3 5-3 5s0-1-1-2c-5-8-11-14-18-20zm49-27c-19 4-36 9-52 16-1 0-2 1-2 1s0-1 1-3c5-10 8-20 8-30l1-1s8 2 13 3c10 4 22 8 30 12l4 1-3 1zM254 44l-2-2h0s1 1 2 1 3 1 6 2c2 0 4 1 6 1 3 1 5 2 5 2s5 15 6 20c1 2 1 4 1 4s0-1-1-2c-5-9-13-18-23-26z"></path>
    <path fill="#a3acb7" d="M280 12c6-2 23-9 24-10h0v3c1 6 3 12 5 19 1 5 1 5 0 4-5-1-26-5-41-7h-4c0-1 11-6 16-9zm25-12h0zm-43 23c10 3 34 8 47 9h3s-1 1-3 2c-6 3-13 7-18 10-2 1-2 1-3 1l8 2s0-1 1-1c4-2 9-6 13-9l3-2 1 1c1 4 6 13 7 15l7 1c-6-11-11-21-15-31-3-6-6-13-7-18l-1-3c-1 0-17 6-28 10-14 6-24 11-31 16-2 1-5 4-6 5 1 3 5 5 8 6v-1c0-3 4-8 11-12l15 19 10 2-5-4-16-16-3-2h2z"></path>
  </symbol>
  <symbol fill-rule="evenodd" viewBox="0 0 742 668" id="user">
    <circle cx="371" cy="132" r="132"></circle>
    <path d="M371 312c-62 0-125-8-216-24C66 272 22 399 3 482c-58 248 794 248 736 0-19-83-64-210-152-194-92 16-154 24-216 24z"></path>
  </symbol>
  <symbol viewBox="0 0 16450 16977" id="laravel">
    <path fill="#ff2d20" d="M16450 3858v57 3651c0 94-56 189-131 226l-3050 1751v3500c0 95-56 170-131 226l-6362 3671c-19 18-38 18-38 18-19 0-19 0-19 19h-75-75c0-19 0-19-19-19 0 0-19 0-38-18L132 13269c-76-56-132-131-132-226V2108c0-19 0-38 19-56v-38c18 0 18-19 18-38l19-19c19-18 19-18 19-37 19 0 19 0 38-19l19-19h0L3331 37c38-18 76-37 132-37 38 0 94 19 132 37l3181 1845h0c19 0 19 19 37 19 0 19 19 19 19 19 19 19 19 19 19 37 19 0 19 19 19 19 19 19 19 38 19 38 0 19 19 19 19 38v56 6814l2635-1506V3915c0-19 0-38 19-57v-37c18 0 18-19 18-38l19-19c19-18 19-18 19-37 19 0 19 0 38-19l18-19h0l3200-1844c38-19 76-38 132-38 38 0 94 19 132 38l3181 1844c19 0 19 19 37 19 0 19 19 19 19 19 19 19 19 19 19 37 19 0 19 19 19 19 19 19 19 38 19 38 0 19 18 19 18 37zm-527 3558V4385l-1110 640-1544 885v3012l2654-1506h0zm-3181 5458V9844l-1524 866-4310 2484v3049l5834-3369zM546 2579v10295l5835 3369v-3049l-3050-1732h0 0c-19-18-19-18-37-18 0-19-19-19-19-38h0c-19 0-19-19-19-19l-19-19h0c-19-19-19-37-19-37 0-19-18-19-18-38h0v-38-18-7134l-1544-885-1110-639h0zM3463 583L809 2108l2654 1543 2654-1543L3463 583h0zm1374 9543l1544-885V2579l-1111 639-1543 885v6663l1110-640zm8169-7736l-2654 1525 2654 1543 2654-1543-2654-1525zm-264 3520l-1543-885-1129-640v3031l1543 884 1129 622V5910zm-6098 6814l3878-2221 1938-1111-2654-1525-3030 1751-2786 1600 2654 1506z"></path>
  </symbol>
    <symbol viewBox="0 0 21794 13103" id="php">
    <ellipse fill="#777bb4" cx="10897" cy="6551" rx="10897" ry="6551"></ellipse>
    <path fill="#fff" fill-rule="nonzero" d="M6499 5204c140-148 316-273 528-374s441-152 686-152 463 53 653 158c191 105 339 255 444 449 105 195 158 422 158 683 0 113-12 231-35 356-59 323-176 612-354 867-176 254-392 453-647 595s-522 213-802 213c-246 0-455-50-628-149s-308-223-405-371l-351 1996h-665l835-4744h665l-82 473zm1757 1120c15-74 23-154 23-240 0-260-77-463-230-609-154-146-347-219-581-219-167 0-334 43-499 128-165 86-308 210-429 374-121 163-200 356-239 578-16 73-24 153-24 239 0 261 77 467 231 618 154 152 345 228 575 228 171 0 339-44 505-131 165-88 308-215 429-383 120-167 200-361 239-583zm3291-1646c323 0 582 91 776 272 195 181 292 438 292 773 0 89-10 198-29 327l-339 1896h-659l321-1797c16-109 23-187 23-234 0-213-59-377-178-490-118-113-283-169-493-169-253 0-466 77-639 231-173 153-283 374-330 662v-12l-321 1809h-665l765-4318h665l-263 1476c136-136 298-241 485-315 186-74 383-111 589-111zm2696 526c140-148 316-273 528-374s441-152 686-152 463 53 654 158c190 105 338 255 443 449 105 195 158 422 158 683 0 113-12 231-35 356-59 323-176 612-353 867-177 254-393 453-648 595s-522 213-803 213c-245 0-454-50-627-149s-308-223-405-371l-351 1996h-665l834-4744h666l-82 473zm1757 1120c15-74 23-154 23-240 0-260-77-463-230-609-154-146-347-219-581-219-167 0-334 43-499 128-166 86-309 210-429 374-121 163-200 356-239 578-16 73-24 153-24 239 0 261 77 467 231 618 153 152 345 228 575 228 171 0 339-44 505-131 165-88 308-215 429-383 120-167 200-361 239-583z"></path>
  </symbol>
  <symbol viewBox="0 0 512 512" id="docker">
    <rect width="512" height="512" rx="15%" fill="#fff"></rect>
    <path stroke="#066da5" stroke-width="38" d="M296 226h42m-92 0h42m-91 0h42m-91 0h41m-91 0h42m8-46h41m8 0h42m7 0h42m-42-46h42"></path>
    <path fill="#066da5" d="m472 228s-18-17-55-11c-4-29-35-46-35-46s-29 35-8 74c-6 3-16 7-31 7H68c-5 19-5 145 133 145 99 0 173-46 208-130 52 4 63-39 63-39"></path>
  </symbol>
  <symbol viewBox="0 0 26 26" id="close">
    <path d="M21.125 0H4.875C2.182 0 0 2.182 0 4.875v16.25C0 23.818 2.182 26 4.875 26h16.25C23.818 26 26 23.818 26 21.125V4.875C26 2.182 23.818 0 21.125 0zM18.78 17.394l-1.388 1.387c-.254.255-.67.255-.924 0L13 15.313 9.533 18.78c-.255.255-.67.255-.925-.002L7.22 17.394a.66.66 0 0 1 0-.926l3.468-3.467-3.467-3.467c-.254-.256-.254-.672 0-.925l1.388-1.388a.65.65 0 0 1 .925 0L13 10.689l3.468-3.468a.65.65 0 0 1 .924 0l1.388 1.386a.66.66 0 0 1 .001.927l-3.468 3.467 3.468 3.467a.66.66 0 0 1-.001.926z"></path>
  </symbol>
</svg>